<?xml version="1.0" encoding="UTF-8"?>
<!-- Generated by Pixelmator Pro 3.8 -->
<svg width="1204" height="688" viewBox="0 0 1204 688" xmlns="http://www.w3.org/2000/svg">
    <g id="Group">
        <path id="Path" fill="#ffffff" stroke="none" visibility="hidden" d="M 0 344 L 0 0 L 342.209991 0 C 647.23999 0 684.419983 0.179993 684.419983 1.340027 C 684.419983 2.059998 683.080017 3.849976 681.549988 5.280029 L 678.590027 7.880005 L 678.679993 26.599976 C 678.77002 47.919983 679.76001 65.030029 680.830017 63.869995 C 682.169983 62.530029 690.679993 15.940002 690.679993 10.119995 C 690.679993 8.330017 689.960022 6.450012 688.890015 5.369995 C 687.900024 4.380005 687.099976 2.77002 687.099976 1.789978 C 687.099976 0 687.72998 0 945.549988 0 L 1204 0 L 1204 249.940002 L 1204 499.880005 L 1189.670044 499.880005 C 1178.920044 499.880005 1175.160034 500.149994 1174.890015 501.040009 C 1174.709961 501.579987 1173.900024 505.25 1173.099976 509.100006 L 1171.579956 516 L 1168.619995 516 C 1166.199951 516 1164.680054 515.099976 1160.829956 511.25 C 1152.050049 502.559998 1140.410034 498.079987 1126.52002 498.079987 C 1116.839966 498.079987 1103.589966 501.299988 1097.410034 505.25 C 1096.689941 505.700012 1094.27002 506.859985 1092.030029 507.76001 C 1078.680054 513.400024 1061.839966 532.400024 1055.390015 548.969971 C 1052.52002 556.5 1049.930054 568.679993 1049.930054 574.590027 C 1049.930054 580.77002 1052.439941 590.450012 1055.660034 597.080017 C 1065.780029 617.590027 1091.400024 628.169983 1115.050049 621.719971 C 1122.75 619.659973 1135.829956 613.75 1137.630005 611.51001 C 1138.439941 610.609985 1140.319946 610.080017 1142.73999 610.080017 C 1146.589966 610.080017 1146.680054 610.169983 1146.680054 612.950012 C 1146.680054 622 1139.069946 639.830017 1131.900024 647.619995 C 1122.76001 657.380005 1110.670044 662.039978 1093.73999 662.039978 C 1078.959961 662.039978 1070.180054 659.710022 1059.969971 653.169983 L 1054.680054 649.679993 L 1046.349976 658.01001 C 1036.670044 667.690002 1036.670044 666.969971 1046.97998 673.419983 C 1053.880005 677.719971 1069.109985 683.539978 1073.5 683.539978 C 1074.839966 683.539978 1075.920044 683.98999 1075.920044 684.440002 C 1075.920044 684.97998 1076.72998 685.340027 1077.709961 685.340027 C 1078.699951 685.340027 1079.5 685.969971 1079.5 686.679993 C 1079.5 687.840027 1018.940002 688.02002 539.76001 688.02002 L 0.02 688.02002 L 0.02 344.019989 Z M 187.410004 676.349976 C 188.660004 671.059998 199.860001 622.51001 202.009995 613.01001 C 202.460007 611.219971 203.089996 610.950012 206.759995 610.950012 C 210.520004 610.950012 211.509995 611.400024 214.020004 614 C 217.779999 617.849976 225.669998 621.440002 234.529999 623.22998 C 248.509995 626.099976 266.869995 621.349976 282.190002 610.960022 C 293.480011 603.26001 305.570007 587.940002 310.950012 574.679993 C 321.609985 547.890015 319.730011 524.330017 305.570007 509.820007 C 297.059998 501.130005 286.579987 496.829987 273.679993 496.829987 C 260.690002 496.920013 247.339996 501.579987 236.679993 509.730011 C 233.190002 512.419983 231.130005 513.309998 228.710007 513.309998 L 225.490005 513.309998 L 226.119995 508.649994 C 226.389999 506.049988 226.929993 502.73999 227.199997 501.390015 L 227.740005 498.880005 L 214.929993 499.149994 L 202.029999 499.420013 L 199.160004 511.959991 C 197.550003 518.859985 192.619995 540.450012 188.139999 559.890015 C 170.130005 639.080017 160.729996 680.02002 159.919998 682.440002 C 159.559998 683.340027 162.339996 683.52002 172.639999 683.340027 L 185.899994 683.070007 L 187.419998 676.349976 Z M 86.540001 627.530029 C 102.400002 624.75 118.339996 618.47998 128.289993 611.140015 C 130.889999 609.169983 135.899994 604.599976 139.490005 600.840027 C 149.699997 590.090027 156.779999 573.429993 156.779999 560.26001 C 156.779999 548.26001 151.759995 536.969971 142.449997 528.280029 C 135.279999 521.469971 127.040001 516.630005 105.629997 506.600006 C 84.580002 496.839996 79.199997 493.700012 73.019997 488.059998 C 66.029999 481.700012 64.239998 477.940002 63.790001 468.529999 C 63.34 458.679993 65.489998 452.48999 71.400002 446.579987 C 73.730003 444.339996 75.879997 442.549988 76.330002 442.549988 C 76.779999 442.549988 78.209999 441.73999 79.550003 440.76001 C 84.660004 437 92.089996 435.209991 104.449997 434.76001 C 122.190002 434.040009 134.190002 437.359985 145.660004 446.230011 C 148.169998 448.109985 150.5 449.720001 150.770004 449.720001 C 151.220001 449.720001 165.100006 437.540009 172.720001 430.459991 C 173.710007 429.559998 172.539993 428.309998 166.449997 423.73999 C 143.25 406.179993 112.879997 401.429993 83.32 410.839996 C 57.25 418.98999 38.709999 437.269989 32.709999 460.559998 C 28.77 475.609985 32.709999 490.029999 44 502.130005 C 51.529999 510.100006 57.889999 514.130005 82.970001 526.5 C 112.620003 541.190002 117.910004 545.039978 122.120003 554.359985 C 124.720001 560.359985 124 573.799988 120.779999 580.070007 C 116.300003 588.849976 105.639999 596.369995 93.010002 599.869995 C 90.410004 600.590027 83.870003 601.390015 78.410004 601.75 C 58.970001 602.73999 42.669998 597.809998 29.5 586.700012 L 25.379999 583.299988 L 14.54 593.150024 L 3.7 603.090027 L 7.73 606.580017 C 27.889999 624.049988 58.970001 632.289978 86.559998 627.539978 Z M 390.850006 623.140015 C 399.720001 621.440002 408.5 617.849976 415.75 613.109985 C 420.410004 609.969971 422.559998 609.169983 425.51001 609.169983 L 429.359985 609.169983 L 428.820007 613.469971 C 428.459991 615.799988 428.01001 618.580017 427.660004 619.73999 L 427.119995 621.710022 L 439.75 621.710022 C 449.160004 621.710022 452.559998 621.440002 452.73999 620.630005 C 453.820007 617.140015 481.049988 500.410004 481.049988 499.329987 C 481.049988 499.149994 475.410004 498.970001 468.51001 498.970001 L 456.059998 498.970001 L 455.160004 502.369995 C 454.709991 504.160004 454 506.940002 453.730011 508.369995 C 452.480011 514.01001 452.299988 514.190002 449.609985 514.190002 C 447.549988 514.190002 445.850006 513.030029 442.079987 509.26001 C 432.850006 499.76001 417.799988 495.019989 403.920013 497.079987 C 373.369995 501.829987 346.769989 526.460022 338.519989 557.640015 C 330.279999 589.080017 342.369995 614.440002 369.160004 622.049988 C 378.119995 624.559998 382.149994 624.73999 390.839996 623.130005 Z M 516 621.26001 C 516 620.630005 524.330017 583.099976 527.73999 568.409973 C 533.650024 542.700012 537.330017 535.619995 548.700012 528.099976 C 556.049988 523.169983 560.169983 522.01001 570.469971 521.919983 C 575.48999 521.830017 579.609985 521.650024 579.609985 521.559998 C 579.609985 521.380005 580.859985 515.919983 582.299988 509.559998 C 583.820007 503.109985 584.809998 497.559998 584.539978 497.290009 C 584.27002 497.019989 581.849976 496.839996 579.25 496.839996 C 569.929993 497.019989 559 502.040009 550.140015 510.279999 C 546.02002 514.039978 544.22998 515.119995 541.98999 515.119995 L 539.030029 515.119995 L 539.659973 510.01001 C 539.929993 507.140015 540.469971 503.470001 540.73999 501.950012 L 541.280029 498.98999 L 529.099976 498.98999 C 517.280029 498.98999 516.919983 499.079987 516.469971 501.049988 C 516.200012 502.130005 514.049988 512.340027 511.540009 523.630005 C 509.119995 535.01001 503.299988 561.340027 498.549988 582.219971 C 493.890015 603.179993 490.040009 620.559998 490.040009 621.01001 C 490.040009 621.369995 495.859985 621.72998 503.029999 621.72998 C 510.200012 621.72998 516.02002 621.549988 516.02002 621.280029 Z M 613.109985 609.440002 C 614.359985 602.630005 616.070007 593.309998 616.960022 588.659973 L 618.570007 580.150024 L 624.210022 576.119995 C 627.429993 573.880005 631.820007 570.47998 634.059998 568.679993 C 637.280029 566.080017 639.080017 565.280029 641.590027 565.280029 C 644.809998 565.280029 645.26001 565.640015 648.219971 570.47998 C 650.01001 573.26001 658.340027 585.97998 666.76001 598.700012 L 681.900024 621.719971 L 697.940002 621.719971 C 706.809998 621.719971 713.97998 621.539978 713.97998 621.27002 C 713.97998 621 703.5 605.409973 690.690002 586.599976 C 661.840027 544.22998 662.919983 548.349976 677.789978 537.51001 C 687.909973 530.070007 700.190002 520.940002 710.580017 513.140015 C 713.359985 510.98999 718.109985 507.589996 721.059998 505.440002 C 730.289978 498.720001 730.650024 498.98999 712.369995 498.98999 L 696.23999 498.98999 L 686.119995 506.779999 C 634.700012 546.02002 631.559998 548.26001 627.890015 548.26001 C 623.5 548.26001 623.5 549.340027 627.530029 524.789978 C 629.22998 514.309998 632.820007 491.200012 635.590027 473.459991 C 638.280029 455.720001 641.950012 432.339996 643.650024 421.5 C 646.700012 402.23999 662.549988 293.399994 664.789978 277.089996 L 665.869995 268.76001 L 669.179993 268.76001 C 672.48999 268.76001 677.419983 272.070007 712.090027 297.700012 C 715.22998 300.029999 718.630005 301.910004 719.789978 301.910004 C 722.299988 301.910004 726.150024 298.950012 727.940002 295.549988 C 729.190002 293.040009 728.840027 291.429993 722.030029 263.570007 C 718.090027 247.440002 714.859985 232.399994 714.859985 230.160004 L 714.859985 225.950012 L 723.909973 219.859985 C 728.840027 216.460022 734.390015 212.690002 736.359985 211.440002 C 738.23999 210.190002 743.969971 206.330017 749.080017 202.75 C 754.099976 199.26001 760.900024 194.600006 764.130005 192.450012 C 772.549988 186.809998 777.570007 181.700012 777.570007 178.73999 C 777.570007 175.869995 772.72998 170.589966 769.419983 169.869995 C 768.26001 169.51001 751.590027 168.440002 732.330017 167.27002 L 697.390015 165.299988 L 695.419983 159.299988 C 694.26001 155.98999 689.780029 141.289978 685.299988 126.599976 C 678.219971 102.950012 676.969971 99.640015 674.549988 97.48999 C 671.5 94.619995 669.349976 94.349976 665.590027 96.330017 C 662.630005 97.849976 660.659973 101.26001 654.840027 115.140015 C 648.390015 130.549988 634.859985 160.830017 634.150024 161.630005 C 633.789978 162.080017 620.710022 161.719971 604.049988 160.910034 C 560.690002 158.76001 560.419983 158.76001 557.469971 160.910034 C 556.039978 161.98999 554.25 163.960022 553.440002 165.47998 C 551.919983 167.98999 551.919983 168.26001 553.440002 170.940002 C 554.25 172.460022 566.789978 184.02002 581.210022 196.649994 C 606.109985 218.330017 607.369995 219.669983 607.369995 222.630005 C 607.369995 225.940002 606.650024 228.089996 593.47998 262.410004 C 585.599976 283.190002 584.969971 285.339996 585.950012 287.76001 C 587.200012 290.899994 590.789978 293.850006 593.299988 293.850006 C 594.289978 293.850006 602.710022 289.640015 611.929993 284.440002 C 621.159973 279.23999 629.219971 275.029999 629.940002 275.029999 C 630.570007 275.029999 632.090027 274.399994 633.25 273.600006 C 634.5 272.700012 637.909973 271.899994 641.48999 271.630005 L 647.669983 271.179993 L 647.669983 274.76001 C 647.669983 282.200012 615.330017 465.570007 600.190002 543.780029 C 592.219971 584.719971 585.859985 618.940002 585.859985 620.369995 C 585.859985 621.530029 587.73999 621.710022 598.309998 621.710022 L 610.76001 621.710022 L 613.090027 609.440002 Z M 776.419983 600.210022 C 779.02002 588.650024 783.950012 566.710022 787.349976 551.390015 C 801.150024 490.470001 816.109985 421.670013 816.109985 419.519989 C 816.109985 419.339996 810.109985 419.25 802.76001 419.25 C 790.76001 419.25 789.320007 419.429993 788.869995 420.859985 C 788.599976 421.670013 787.440002 427.220001 786.179993 433.130005 C 779.190002 466.369995 746.400024 614.539978 744.789978 620.179993 C 744.340027 621.609985 745.23999 621.700012 757.960022 621.52002 L 771.669983 621.25 L 776.419983 600.200012 Z M 849.609985 608.090027 C 851.400024 600.559998 854.450012 587.309998 856.419983 578.710022 C 858.47998 570.109985 863.320007 549.23999 867.169983 532.400024 C 871.109985 515.559998 874.340027 501.140015 874.340027 500.420013 C 874.340027 499.170013 872.820007 498.98999 864.309998 498.98999 C 858.76001 498.98999 852.75 499.26001 851.049988 499.529999 L 847.830017 500.070007 L 843.97998 516.72998 C 841.919983 525.960022 835.559998 553.190002 829.919983 577.289978 C 824.280029 601.390015 819.710022 621.190002 819.710022 621.369995 C 819.710022 621.549988 825.710022 621.72998 833.059998 621.72998 L 846.409973 621.72998 L 849.630005 608.109985 Z M 916.349976 618.390015 C 916.890015 616.51001 919.929993 603.52002 923.159973 589.450012 C 934.900024 538.840027 936.059998 535.880005 948.330017 527.099976 C 957.200012 520.830017 962.219971 519.400024 974.669983 519.75 C 984.429993 520.02002 985.419983 520.200012 989.450012 522.710022 C 996.169983 526.830017 997.51001 530.409973 997.419983 542.419983 C 997.23999 551.559998 996.700012 554.690002 988.820007 587.030029 L 980.309998 621.700012 L 993.570007 621.700012 C 1005.390015 621.700012 1006.830017 621.52002 1007.280029 620.179993 C 1007.460022 619.280029 1008.530029 614.719971 1009.609985 610.059998 C 1010.690002 605.400024 1014.809998 588.02002 1018.840027 571.539978 C 1025.73999 543.22998 1026.189941 540.98999 1026.099976 531.679993 C 1026.099976 521.109985 1025.290039 517.969971 1020.640015 511.26001 C 1017.330017 506.420013 1009.440002 501.049988 1002.630005 498.98999 C 987.76001 494.329987 966.97998 499.079987 952.460022 510.369995 C 948.789978 513.23999 946.640015 514.219971 944.400024 514.219971 L 941.26001 514.219971 L 941.890015 509.559998 C 942.159973 506.959991 942.700012 503.470001 942.969971 501.950012 L 943.51001 498.98999 L 930.969971 498.98999 C 923.179993 498.98999 918.159973 499.350006 917.799988 499.890015 C 917.26001 500.790009 913.590027 516.190002 894.150024 599.599976 L 888.950012 621.72998 L 902.210022 621.72998 L 915.469971 621.72998 L 916.369995 618.419983 Z M 877.919983 470.48999 C 885.710022 465.649994 889.73999 456.160004 886.609985 450.070007 C 884.640015 446.309998 880.429993 442.540009 876.669983 441.290009 C 873.799988 440.299988 872.640015 440.390015 868.25 441.920013 C 861.349976 444.25 857.679993 447.209991 854.900024 452.850006 C 852.030029 458.670013 852.570007 462.609985 856.690002 467.359985 C 862.690002 474.26001 870.039978 475.329987 877.919983 470.5 Z M 757.25 356.359985 C 756.090027 353.670013 737.179993 330.380005 736.650024 330.829987 C 736.200012 331.369995 741.849976 346.690002 745.340027 354.390015 C 746.679993 357.350006 748.919983 360.660004 750.27002 361.829987 L 752.869995 363.799988 L 755.559998 361.109985 C 757.799988 358.779999 758.070007 358.149994 757.26001 356.359985 Z M 552.369995 345.609985 C 556.76001 340.769989 570.02002 318.649994 567.419983 320.709991 C 556.400024 329.130005 542.869995 342.119995 542.869995 344.089996 C 542.869995 344.98999 543.950012 346.51001 545.200012 347.48999 C 547.799988 349.549988 549.22998 349.190002 552.369995 345.609985 Z M 815.659973 295.079987 C 818.349976 292.119995 817.719971 290.51001 812.169983 286.75 C 808.049988 283.880005 770.25 264.26001 771.77002 265.790009 C 781.090027 275.019989 809.47998 297.410004 811.719971 297.410004 C 812.710022 297.410004 814.5 296.329987 815.659973 295.079987 Z M 509.279999 269.549988 C 511.25 268.299988 515.909973 265.519989 519.580017 263.279999 C 525.219971 259.970001 531.580017 256.019989 541.710022 249.299988 C 544.039978 247.779999 540.630005 248.76001 524.51001 254.410004 C 517.159973 256.920013 508.73999 259.869995 505.970001 260.859985 C 500.23999 262.829987 495.670013 265.700012 494.149994 268.119995 C 493.339996 269.459991 493.700012 270.179993 496.029999 272.329987 L 498.899994 274.929993 L 502.299988 273.410004 C 504.179993 272.51001 507.320007 270.809998 509.290009 269.559998 Z M 853.640015 217.140015 C 855.880005 214.27002 855.969971 212.570007 854 210.330017 C 852.659973 208.809998 850.599976 208.720001 827.119995 208.720001 C 810.820007 208.720001 801.77002 209.080017 801.77002 209.619995 C 801.77002 210.160004 802.039978 210.52002 802.48999 210.52002 C 802.849976 210.609985 812.789978 212.580017 824.619995 215 C 850.330017 220.200012 851.22998 220.289978 853.640015 217.149994 Z M 518.23999 184.619995 C 519.140015 183.190002 469.149994 171.900024 466.279999 172.880005 C 465.290009 173.23999 463.769989 174.48999 462.880005 175.75 C 460.910004 178.350006 461.720001 180.950012 465.209991 182.919983 C 468.429993 184.799988 517.169983 186.320007 518.23999 184.619995 Z M 821.929993 139.109985 C 825.419983 137.859985 829.539978 136.23999 831.070007 135.530029 C 832.679993 134.900024 835.640015 133.73999 837.609985 133.02002 C 843.700012 130.869995 849.26001 126.47998 849.26001 123.880005 C 849.26001 121.910034 845.859985 119.130005 843.440002 119.130005 C 842.099976 119.130005 833.5 124.330017 821.039978 132.570007 C 809.929993 140.01001 800.880005 146.190002 800.880005 146.460022 C 800.880005 146.72998 807.51001 144.48999 821.929993 139.109985 Z M 540.01001 117.429993 C 530.599976 108.559998 515.369995 95.299988 510 91.179993 C 504.619995 87.150024 501.850006 87.059998 499.339996 90.910034 C 498 92.969971 498 93.330017 499.339996 95.390015 C 500.769989 97.539978 515.909973 106.859985 536.159973 118.140015 C 541.619995 121.099976 546.099976 123.599976 546.280029 123.599976 C 546.369995 123.599976 543.5 120.820007 540.01001 117.419983 Z M 763.159973 86.429993 C 777.669983 70.570007 784.75 62.059998 784.75 60.719971 C 784.75 58.929993 780.900024 55.52002 778.929993 55.52002 C 776.150024 55.52002 773.380005 58.919983 763.969971 74.330017 C 753.130005 92.070007 747.219971 102.910034 749.280029 101.210022 C 750.179993 100.48999 756.450012 93.859985 763.169983 86.429993 Z M 597.25 64.839966 C 584.080017 32.409973 582.02002 28.73999 577.539978 29.900024 C 576.289978 30.169983 574.669983 31.419983 573.869995 32.679993 C 572.349976 34.919983 572.440002 35.190002 574.77002 39.219971 C 582.469971 52.47998 603.789978 84.460022 604.51001 83.73999 C 604.690002 83.650024 601.369995 75.049988 597.25 64.839966 Z"/>
        <path id="path1" fill="#ffffff" stroke="none" visibility="hidden" d="M 233.190002 601.099976 C 216.619995 597.609985 209.179993 581.840027 213.660004 559.799988 C 216.259995 546.98999 220.830002 537.940002 228.350006 530.780029 C 237.759995 521.820007 246.179993 518.690002 260.600006 518.690002 C 271.890015 518.690002 276.730011 520.030029 282.100006 524.690002 C 288.459991 530.150024 289.709991 533.469971 290.070007 547 C 290.519989 563.75 287.290009 574.859985 278.779999 585.52002 C 274.660004 590.809998 265.070007 597.52002 258.440002 599.76001 C 253.330002 601.549988 238.820007 602.359985 233.179993 601.099976 Z"/>
        <path id="path2" fill="#ffffff" stroke="none" visibility="hidden" d="M 383.149994 601.01001 C 370.429993 598.049988 363.709991 588.830017 362.98999 573.330017 C 362.269989 556.400024 367.380005 542.690002 378.399994 531.580017 C 388.519989 521.549988 397.75 518.140015 413.519989 518.859985 C 420.600006 519.130005 423.369995 519.669983 427.320007 521.460022 C 437.529999 526.210022 441.73999 533.280029 442.369995 546.900024 C 443.089996 563.469971 437.799988 577.98999 427.230011 588.650024 C 421.049988 594.830017 413.429993 599.309998 405.820007 601.01001 C 400.980011 602.169983 387.899994 602.169983 383.160004 601.01001 Z"/>
        <path id="path3" fill="#ffffff" stroke="none" visibility="hidden" d="M 686.659973 263.380005 C 677.789978 257.019989 669.909973 251.820007 669.099976 251.72998 C 668.289978 251.72998 667.130005 251.100006 666.409973 250.299988 C 664.530029 247.970001 660.409973 246.27002 658.080017 246.899994 C 656.919983 247.169983 655.030029 248.419983 653.869995 249.589996 C 652.619995 250.929993 650.820007 251.73999 649.210022 251.73999 C 646.789978 251.73999 633.530029 258.279999 619.919983 266.25 C 616.429993 268.309998 612.929993 269.649994 611.22998 269.649994 C 608.359985 269.649994 608.27002 269.559998 608.27002 266.070007 C 608.27002 264.01001 609.429993 259.350006 610.869995 255.5 C 617.859985 237.309998 624.400024 219.220001 624.400024 218.22998 C 624.400024 217.690002 615.530029 209.539978 604.690002 200.309998 C 586.5 184.720001 584.97998 183.200012 584.97998 180.51001 C 584.97998 175.219971 585.070007 175.219971 614.539978 175.940002 L 641.330017 176.570007 L 642.849976 174.23999 C 643.75 172.900024 648.580017 162.330017 653.599976 150.679993 L 662.830017 129.450012 L 667.669983 129.179993 L 672.419983 128.910034 L 678.059998 148.440002 C 681.200012 159.190002 684.330017 169.849976 685.049988 172.27002 C 687.02002 178.98999 687.380005 179.080017 713.630005 180.51001 C 726.440002 181.22998 738.97998 181.850006 741.580017 181.850006 L 746.23999 181.850006 L 746.23999 185.339996 L 746.23999 188.830017 L 728.590027 200.830017 C 718.830017 207.460022 708.340027 214.630005 705.299988 216.690002 C 702.159973 218.75 699.299988 221.080017 698.849976 221.97998 C 698.309998 223.059998 699.659973 230.130005 703.330017 245 C 706.200012 256.820007 708.530029 268.380005 708.619995 270.799988 C 708.619995 275.01001 708.619995 275.01001 705.75 275.01001 C 703.419983 275.01001 699.390015 272.5 686.669983 263.359985 Z"/>
        <path id="path4" fill="#ffffff" stroke="none" visibility="hidden" d="M 1102.77002 686.919983 C 1102.77002 684.679993 1104.199951 683.869995 1111.280029 682.26001 C 1126.23999 678.77002 1136.900024 673.119995 1147.73999 663 C 1159.390015 652.070007 1167 638.809998 1173 619.01001 C 1174.969971 612.469971 1185.180054 570.630005 1196.380005 522.97998 C 1199.52002 509.540009 1199.780029 508.829987 1201.839966 508.829987 L 1203.98999 508.829987 L 1203.98999 598.409973 L 1203.98999 687.98999 L 1153.380005 687.98999 C 1113.52002 687.98999 1102.77002 687.719971 1102.77002 686.909973 Z"/>
        <path id="path5" fill="#ffffff" stroke="none" visibility="hidden" d="M 1100.079956 600.659973 C 1089.959961 597.789978 1083.780029 592.330017 1080.189941 583.190002 C 1078.76001 579.340027 1078.310059 576.289978 1078.310059 569.299988 C 1078.310059 553.440002 1081.97998 543.950012 1092.459961 533.380005 C 1103.119995 522.630005 1112.880005 519.049988 1129.640015 519.76001 C 1137.52002 520.119995 1139.939941 520.570007 1144.420044 522.630005 C 1150.959961 525.590027 1154.98999 529.349976 1158.130005 535.26001 C 1160.099976 539.109985 1160.550049 541.080017 1160.819946 549.590027 C 1161.089966 556.849976 1160.819946 560.969971 1159.660034 565.27002 C 1155.540039 581.219971 1143.97998 594.210022 1129.199951 599.400024 C 1121.939941 601.909973 1106.97998 602.539978 1100.089966 600.650024 Z"/>
    </g>
    <g id="g1">
        <path id="path6" fill="#fefefe" stroke="none" d="M 1070.52002 686.210022 C 1056.459961 683.25 1041.76001 676.179993 1035.130005 669.190002 L 1032.530029 666.409973 L 1043.459961 655.47998 C 1051.699951 647.330017 1054.660034 644.820007 1055.550049 645.450012 C 1069.079956 655.659973 1079.380005 659.340027 1093.709961 659.340027 C 1117.630005 659.25 1134.829956 645.630005 1141.640015 621.27002 C 1142.540039 618.309998 1143.339966 615.179993 1143.609985 614.369995 C 1144.23999 612.309998 1141.910034 612.219971 1140.300049 614.190002 C 1138.51001 616.429993 1125.430054 622.340027 1117.550049 624.48999 C 1108.589966 627 1094.439941 627.179993 1085.75 624.940002 C 1052.51001 616.52002 1038.540039 583.099976 1052.689941 546.289978 C 1059.140015 529.719971 1075.97998 510.730011 1089.329956 505.079987 C 1091.569946 504.179993 1093.98999 503.019989 1094.709961 502.570007 C 1101.609985 498.179993 1114.060059 495.399994 1126.51001 495.399994 C 1143.170044 495.399994 1154.189941 499.339996 1163.599976 508.660004 C 1166.199951 511.26001 1168.530029 513.22998 1168.709961 513.140015 C 1168.890015 512.960022 1169.790039 509.380005 1170.680054 505.26001 L 1172.290039 497.649994 L 1188.150024 497.380005 L 1204.01001 497.200012 L 1204.01001 504.369995 C 1204.01001 508.309998 1203.650024 511.540009 1203.199951 511.540009 C 1202.75 511.540009 1200.869995 517.900024 1199.079956 525.690002 C 1187.880005 573.349976 1177.670044 615.179993 1175.699951 621.719971 C 1169.699951 641.52002 1162.079956 654.780029 1150.439941 665.710022 C 1139.599976 675.830017 1129.75 681.030029 1113.079956 685.330017 C 1102.060059 688.200012 1081.72998 688.640015 1070.530029 686.22998 Z M 1126.51001 596.630005 C 1145.859985 590 1159.209961 570.02002 1158.130005 549.599976 C 1157.22998 533.73999 1146.75 523.710022 1129.819946 522.549988 C 1116.109985 521.559998 1105.359985 525.77002 1095.150024 536.080017 C 1085.300049 546.02002 1081.170044 555.609985 1081.089966 568.869995 C 1081 583.830017 1088.619995 593.950012 1102.77002 597.97998 C 1109.040039 599.679993 1119.25 599.140015 1126.51001 596.640015 Z"/>
        <path id="path7" fill="#fefefe" stroke="none" d="M 155.880005 685.849976 C 155.880005 685.669983 157.759995 677.700012 160 668.200012 C 164.929993 647.150024 174.600006 604.950012 185.440002 557.210022 C 189.919998 537.77002 194.850006 516.179993 196.460007 509.279999 L 199.330002 496.73999 L 215.279999 496.470001 L 231.139999 496.290009 L 231.139999 498.26001 C 231.139999 499.420013 230.509995 502.559998 229.800003 505.25 C 229.080002 507.940002 228.639999 510.269989 228.809998 510.450012 C 228.990005 510.630005 231.320007 509.109985 233.919998 507.049988 C 239.919998 502.480011 249.509995 497.820007 257.119995 495.76001 C 265.179993 493.609985 282.559998 493.519989 289.369995 495.670013 C 310.779999 502.390015 321.619995 520.130005 320.459991 546.280029 C 319.470001 569.75 310.25 590.27002 293.670013 606.030029 C 279.779999 619.289978 265.179993 625.650024 246.369995 626.719971 C 232.479996 627.619995 217.880005 623.409973 211.339996 616.690002 C 207.940002 613.200012 205.429993 612.75 204.710007 615.700012 C 202.559998 625.200012 191.360001 673.75 190.110001 679.039978 L 188.589996 685.76001 L 172.199997 686.030029 C 163.240005 686.119995 155.899994 686.119995 155.899994 685.849976 Z M 255.770004 597.070007 C 262.309998 594.830017 271.899994 588.109985 276.109985 582.830017 C 284.170013 572.710022 287.929993 560.700012 287.399994 547 C 286.950012 536.429993 285.339996 532.400024 279.429993 527.380005 C 274.5 523.080017 269.040009 521.380005 260.619995 521.380005 C 242.699997 521.380005 227.029999 532.309998 219.949997 549.960022 C 216.899994 557.309998 214.75 569.130005 215.289993 574.77002 C 216.539993 586.859985 224.520004 596 235.889999 598.419983 C 241 599.5 250.399994 598.869995 255.779999 597.080017 Z"/>
        <path id="path8" fill="#fefefe" stroke="none" d="M 50.970001 630.130005 C 34.84 627.26001 18.27 620.099976 8.51 611.859985 C 5.55 609.349976 2.42 607.109985 1.61 606.840027 C 0.53 606.47998 0 605.320007 0 603.789978 C 0 601.72998 2.24 599.309998 12.72 589.640015 L 25.440001 577.98999 L 30.459999 582.469971 C 39.689999 590.799988 50.349998 595.909973 63.16 598.150024 C 76.330002 600.390015 87.970001 598.960022 100.07 593.48999 C 120.230003 584.26001 127.120003 563.840027 114.760002 549.859985 C 110.370003 544.75 103.559998 540.719971 80.269997 529.169983 C 55.189999 516.809998 48.830002 512.780029 41.299999 504.799988 C 28.040001 490.559998 24.73 472.369995 31.709999 452.209991 C 37.259998 436.350006 50.880001 421.570007 67.629997 413.149994 C 92.980003 400.519989 129.619995 399.980011 154.529999 411.899994 C 164.649994 416.829987 178.270004 427.309998 178.270004 430.26001 C 178.270004 430.529999 158.289993 448.709991 153.100006 453.01001 L 150.589996 455.160004 L 144.949997 450.5 C 138.050003 444.769989 129.089996 440.380005 120.220001 438.410004 C 107.769997 435.630005 89.580002 438.049988 82.239998 443.429993 C 80.900002 444.420013 79.459999 445.220001 79.019997 445.220001 C 76.870003 445.220001 69.879997 453.730011 68.089996 458.480011 C 64.330002 468.420013 66.839996 477.290009 75.699997 485.359985 C 81.879997 491 87.260002 494.140015 108.309998 503.899994 C 129.720001 513.929993 137.960007 518.77002 145.130005 525.580017 C 155.160004 534.98999 159.460007 545.469971 159.460007 560.25 C 159.460007 585.51001 143.960007 608.710022 118.879997 620.900024 C 103.830002 628.159973 87.879997 631.650024 69.519997 631.469971 C 63.07 631.469971 54.740002 630.840027 50.98 630.130005 Z"/>
        <path id="path9" fill="#fefefe" stroke="none" d="M 374.01001 626.460022 C 353.940002 623.77002 338.980011 610.599976 334.5 591.52002 C 332.529999 583.190002 333.25 564.909973 335.839996 554.969971 C 339.779999 540.190002 348.73999 525.409973 360.299988 514.570007 C 386.190002 490.380005 425.429993 486.709991 444.779999 506.600006 L 449.709991 511.529999 L 450.25 509.109985 C 451.149994 504.899994 452.48999 499.519989 452.940002 497.910004 C 453.390015 496.480011 454.910004 496.299988 469.070007 496.299988 C 480.980011 496.299988 484.660004 496.570007 484.660004 497.459991 C 484.660004 499.160004 457.160004 618.039978 455.459991 623.320007 C 455.279999 624.130005 451.25 624.400024 439.420013 624.400024 C 421.679993 624.400024 422.76001 625.030029 425 616.609985 C 425.809998 613.559998 425.899994 611.859985 425.359985 611.859985 C 424.820007 611.859985 421.779999 613.650024 418.459991 615.799988 C 405.380005 624.400024 388.720001 628.429993 374.029999 626.460022 Z M 403.119995 598.330017 C 410.730011 596.630005 418.350006 592.150024 424.529999 585.969971 C 431.519989 578.97998 435.459991 571.72998 438.149994 560.799988 C 443.700012 538.669983 433.76001 522.909973 413.339996 521.559998 C 400.799988 520.75 390.679993 524.780029 381.089996 534.280029 C 361.380005 553.98999 360.399994 586.150024 379.119995 595.820007 C 385.660004 599.130005 395.25 600.210022 403.130005 598.330017 Z"/>
        <path id="path10" fill="#fefefe" stroke="none" d="M 486.440002 622.869995 C 486.440002 622.059998 490.649994 602.619995 495.850006 579.690002 C 500.959991 556.76001 507.049988 529.52002 509.290009 519.130005 C 511.529999 508.829987 513.5 499.420013 513.77002 498.350006 C 514.219971 496.290009 514.400024 496.290009 529.450012 496.290009 C 546.919983 496.290009 545.840027 495.480011 543.340027 505.700012 C 542.619995 508.660004 542.090027 511.429993 542 511.880005 C 542 512.23999 544.419983 510.359985 547.289978 507.670013 C 557.22998 498.440002 567.450012 494.140015 579.359985 494.049988 C 583.75 494.049988 587.150024 494.5 587.690002 495.040009 C 588.5 495.850006 587.960022 499.609985 585.450012 510.269989 C 583.659973 518.150024 581.869995 524.780029 581.51001 525.140015 C 581.23999 525.5 578.460022 525.409973 575.51001 524.960022 C 564.219971 523.169983 552.130005 527.830017 543.530029 537.409973 C 536.450012 545.289978 535.109985 549.679993 523.190002 603.070007 C 520.77002 614.359985 518.710022 623.669983 518.710022 623.940002 C 518.710022 624.210022 511.450012 624.390015 502.579987 624.390015 C 488.160004 624.390015 486.450012 624.210022 486.450012 622.869995 Z"/>
        <path id="path11" fill="#fefefe" stroke="none" d="M 582.289978 622.780029 C 582.289978 621.080017 589.280029 583.719971 597.52002 541.080017 C 604.960022 502.73999 614.809998 448.450012 631.200012 355.730011 C 638.01001 316.850006 645 276.179993 645 274.839996 C 645 274.480011 644.369995 274.119995 643.659973 274.119995 C 642.049988 274.119995 641.960022 275.109985 644.109985 261.220001 C 645.099976 254.859985 645.900024 249.570007 645.900024 249.399994 C 645.900024 249.220001 646.619995 249.039978 647.419983 249.039978 C 648.22998 249.039978 650.02002 247.960022 651.450012 246.619995 C 655.119995 243.039978 662.200012 242.679993 666.5 245.809998 C 668.200012 247.059998 670.530029 248.5 671.700012 248.950012 C 674.030029 250.029999 674.030029 250.830017 672.690002 263.369995 C 671.789978 271.160004 671.440002 272.329987 670.090027 271.880005 C 668.75 271.429993 668.390015 272.51001 667.48999 279.670013 C 665.25 296.059998 649.390015 404.910004 646.349976 424.170013 C 644.650024 435.01001 640.969971 458.390015 638.289978 476.130005 C 631.929993 516.890015 628.169983 540.98999 627.539978 543.590027 C 627.27002 544.669983 627.450012 545.559998 627.900024 545.559998 C 628.619995 545.559998 649.48999 529.969971 683.440002 504.079987 L 693.559998 496.290009 L 715.51001 496.290009 C 727.599976 496.290009 737.280029 496.649994 737.099976 497.100006 C 736.830017 497.910004 729.48999 503.820007 722.950012 508.660004 C 720.710022 510.269989 716.5 513.409973 713.539978 515.650024 C 699.47998 526.130005 690.070007 533.210022 680.47998 540.200012 C 673.219971 545.48999 670.090027 548.26001 670.359985 549.25 C 670.539978 550.059998 681.919983 567.080017 695.530029 587.049988 C 709.150024 607.030029 720.26001 623.599976 720.26001 623.869995 C 720.26001 624.140015 711.030029 624.409973 699.75 624.409973 L 679.23999 624.409973 L 664.099976 601.390015 C 655.679993 588.669983 647.349976 575.950012 645.559998 573.169983 C 643.859985 570.299988 642.070007 567.969971 641.619995 567.969971 C 641.26001 567.969971 639.109985 569.48999 636.780029 571.369995 C 634.539978 573.159973 630.150024 576.570007 626.929993 578.809998 L 621.289978 582.840027 L 619.679993 591.349976 C 618.780029 596.01001 617.080017 605.330017 615.830017 612.130005 L 613.5 624.400024 L 597.909973 624.400024 C 583.400024 624.400024 582.320007 624.309998 582.320007 622.789978 Z"/>
        <path id="path12" fill="#fefefe" stroke="none" d="M 741.390015 623.679993 C 741.119995 623.22998 744.349976 607.72998 748.469971 589.369995 C 754.380005 563.75 775.429993 467.899994 784.840027 424.179993 C 785.380005 421.76001 786 418.980011 786.27002 418.179993 C 786.630005 416.75 788.23999 416.570007 803.200012 416.570007 C 812.25 416.570007 819.679993 416.929993 819.679993 417.380005 C 819.679993 420.160004 805.349976 486.179993 790.030029 554.080017 C 786.630005 569.400024 781.700012 591.349976 779.099976 602.900024 L 774.349976 623.950012 L 758.140015 624.219971 C 749.179993 624.309998 741.659973 624.039978 741.390015 623.679993 Z"/>
        <path id="path13" fill="#fefefe" stroke="none" d="M 816.099976 623.320007 C 816.099976 622.780029 820.940002 601.640015 826.76001 576.559998 C 832.669983 551.390015 839.210022 523.26001 841.27002 514.030029 L 845.119995 497.369995 L 848.340027 496.829987 C 850.039978 496.559998 857.210022 496.290009 864.289978 496.290009 C 875.400024 496.290009 877.099976 496.470001 877.640015 497.809998 C 877.909973 498.619995 874.419983 515.460022 869.849976 535.169983 C 865.280029 554.969971 860.169983 576.919983 858.469971 584.080017 C 856.859985 591.25 854.080017 603.25 852.289978 610.780029 L 849.070007 624.400024 L 832.590027 624.400024 C 820.5 624.400024 816.109985 624.130005 816.109985 623.320007 Z"/>
        <path id="path14" fill="#fefefe" stroke="none" d="M 885.710022 623.77002 C 885.440002 623.320007 887.409973 614.01001 890.01001 602.900024 C 892.609985 591.789978 899.059998 564.200012 904.25 541.539978 C 909.539978 518.880005 914.190002 499.440002 914.640015 498.359985 C 915.450012 496.299988 915.799988 496.299988 930.77002 496.299988 C 948.51001 496.299988 947.969971 495.940002 945.72998 505.170013 C 945.01001 508.390015 944.47998 511.170013 944.570007 511.26001 C 944.659973 511.440002 946.98999 509.829987 949.77002 507.679993 C 961.059998 498.899994 974.409973 494.51001 989.98999 494.51001 C 1008.799988 494.51001 1020.900024 501.320007 1027.26001 515.559998 C 1028.51001 518.429993 1028.869995 521.650024 1028.869995 531.690002 L 1028.869995 544.22998 L 1021.52002 574.23999 C 1017.48999 590.719971 1013.369995 608.099976 1012.289978 612.76001 C 1011.210022 617.419983 1010.140015 621.98999 1009.960022 622.880005 C 1009.51001 624.219971 1007.98999 624.400024 993.47998 624.400024 C 984.700012 624.400024 977.27002 624.130005 977.090027 623.77002 C 976.820007 623.320007 980.669983 606.570007 985.599976 586.320007 C 992.679993 557.299988 994.559998 548.070007 994.650024 542.419983 C 994.830017 533.280029 992.950012 529.25 986.77002 525.400024 C 983.01001 523.070007 981.390015 522.710022 974.77002 522.440002 C 965.27002 521.98999 959.27002 523.869995 951.030029 529.789978 C 938.76001 538.570007 937.590027 541.530029 925.859985 592.140015 C 922.640015 606.200012 919.590027 619.190002 919.049988 621.080017 L 918.150024 624.390015 L 902.109985 624.390015 C 893.330017 624.390015 885.900024 624.119995 885.719971 623.76001 Z"/>
        <path id="path15" fill="#fefefe" stroke="none" d="M 860.450012 474.970001 C 850.690002 470.220001 847.280029 459.73999 852.390015 449.709991 C 855.169983 444.25 858.75 441.470001 866.280029 438.959991 C 874.969971 436 881.150024 437.529999 886.700012 443.799988 C 894.400024 452.670013 891.27002 467 880.159973 473.540009 C 874.52002 476.76001 865.650024 477.390015 860.450012 474.970001 Z"/>
    </g>
    <g id="g2">
        <path id="path16" fill="#f8740d" stroke="none" d="M 696.419983 290.880005 C 686.119995 283.269989 675.72998 275.73999 673.219971 274.040009 L 668.73999 270.98999 L 669.72998 262.480011 C 670.27002 257.820007 670.539978 252.890015 670.359985 251.549988 C 669.909973 249.48999 670.179993 249.039978 671.52002 249.039978 C 672.51001 249.130005 680.47998 254.330017 689.349976 260.690002 C 698.400024 267.230011 705.559998 271.799988 705.73999 271.170013 C 705.830017 270.540009 703.5 259.970001 700.539978 247.700012 C 697.580017 235.339996 695.159973 224.140015 695.159973 222.799988 C 695.159973 219.130005 697.400024 217.339996 721.859985 200.850006 C 733.77002 192.789978 743.539978 185.799988 743.539978 185.350006 C 743.539978 184.899994 741.390015 184.539978 738.880005 184.539978 C 736.280029 184.539978 723.73999 183.910004 710.929993 183.200012 C 684.679993 181.77002 684.320007 181.679993 682.349976 174.960022 C 681.630005 172.539978 678.5 161.880005 675.359985 151.130005 C 667.830017 125.059998 668.640015 124.969971 656.280029 153.369995 C 651.26001 165.02002 646.340027 175.679993 645.530029 176.929993 L 643.919983 179.350006 L 616.869995 178.720001 C 593.580017 178.179993 589.72998 178.27002 588.73999 179.350006 C 587.840027 180.51001 590.530029 183.200012 605.76001 196.190002 C 626.179993 213.570007 627.97998 215.27002 627.97998 217.779999 C 627.97998 219.299988 625.469971 226.470001 614.900024 254.690002 C 612.75 260.51001 610.960022 265.709991 610.960022 266.25 C 610.960022 266.700012 612.840027 266.070007 615.26001 264.730011 C 632.01001 255.140015 644.200012 249.049988 646.700012 249.049988 C 649.299988 249.049988 649.47998 249.22998 648.940002 251.380005 C 648.580017 252.630005 647.690002 258.190002 646.880005 263.649994 L 645.359985 273.679993 L 641.419983 274.399994 C 639.179993 274.850006 636.580017 275.73999 635.599976 276.459991 C 634.700012 277.179993 633.27002 277.709991 632.640015 277.709991 C 631.919983 277.709991 623.679993 282.01001 614.280029 287.299988 C 599.22998 295.720001 596.630005 296.980011 593.22998 296.799988 C 585.969971 296.529999 581.76001 291.51001 582.570007 284.079987 C 582.75 281.839996 587.590027 267.869995 593.320007 253.080017 C 598.960022 238.299988 603.890015 225.309998 604.159973 224.22998 C 604.700012 222.529999 601.469971 219.390015 578.539978 199.330017 C 564.119995 186.789978 551.580017 175.140015 550.679993 173.530029 C 547.719971 168.150024 549.599976 161.530029 555.159973 157.940002 C 558.119995 155.969971 565.72998 156.059998 605.51001 158.119995 C 619.570007 158.839966 631.309998 159.200012 631.669983 158.839966 C 632.299988 158.030029 646.179993 126.679993 652.179993 112.440002 C 659.969971 93.900024 661.5 92.280029 670.01001 92.280029 C 673.679993 92.280029 675.030029 92.72998 677.27002 94.789978 C 679.690002 96.940002 680.940002 100.25 688.02002 123.900024 C 692.5 138.589966 696.97998 153.280029 698.140015 156.599976 L 700.109985 162.599976 L 735.049988 164.570007 C 754.309998 165.72998 770.880005 166.809998 771.960022 167.080017 C 775.179993 167.799988 779.309998 172.01001 780.289978 175.5 C 782.169983 182.48999 779.299988 186.700012 766.76001 195.119995 C 763.619995 197.27002 756.820007 201.929993 751.799988 205.419983 C 746.690002 209 740.960022 212.859985 739.080017 214.109985 C 725.909973 222.619995 717.580017 228.799988 717.580017 230.149994 C 717.580017 230.960022 720.799988 244.75 724.75 260.700012 C 728.690002 276.73999 731.919983 291.160004 731.919983 292.769989 C 731.919983 299.670013 726.900024 304.589996 719.830017 304.589996 C 715.169983 304.589996 714.900024 304.410004 696.450012 290.880005 Z"/>
        <path id="path17" fill="#f8740d" stroke="none" d="M 808.130005 300.01001 C 805.349976 298.929993 792.27002 288.540009 777.400024 275.640015 C 767.900024 267.48999 765.039978 264.440002 765.039978 262.829987 C 765.039978 258.619995 769.52002 260.049988 790.75 270.980011 C 811.799988 281.730011 818.159973 285.579987 819.690002 288.450012 C 821.840027 292.480011 819.960022 297.679993 815.47998 300.01001 C 813.150024 301.170013 811.090027 301.170013 808.130005 300.01001 Z"/>
        <path id="path18" fill="#f8740d" stroke="none" d="M 493.690002 275.380005 C 491.359985 273.5 490.910004 272.420013 490.910004 269.290009 C 490.910004 265.350006 492.519989 263.019989 497.089996 260.690002 C 501.929993 258.179993 539.460022 245.460022 541.969971 245.460022 C 542.869995 245.460022 543.940002 245.100006 544.210022 244.559998 C 545.109985 243.130005 548.869995 243.47998 549.5 245.100006 C 550.75 248.23999 548.599976 249.940002 519.76001 267.589996 C 501.839996 278.519989 498.619995 279.5 493.690002 275.380005 Z"/>
        <path id="path19" fill="#f8740d" stroke="none" d="M 794.159973 149.599976 C 792.909973 147.539978 796.669983 144.400024 817 130.880005 C 838.22998 116.640015 838.590027 116.460022 843.429993 116.460022 C 847.099976 116.460022 848.809998 116.910034 850.150024 118.25 C 852.570007 120.669983 853.289978 124.070007 851.940002 127.210022 C 850.859985 129.809998 844.5 134.469971 840.289978 135.719971 C 839.039978 136.080017 836.440002 137.150024 834.469971 137.960022 C 832.5 138.859985 829.719971 140.02002 828.200012 140.469971 C 826.77002 141.01001 819.960022 143.429993 813.059998 145.929993 C 801.150024 150.320007 795.320007 151.47998 794.159973 149.599976 Z"/>
        <path id="path20" fill="#f8740d" stroke="none" d="M 539.289978 123.97998 C 528.809998 118.429993 503.549988 103.72998 499.51001 100.960022 C 498.170013 99.969971 496.369995 97.820007 495.75 96.210022 C 494.670013 93.609985 494.670013 92.719971 495.75 90.119995 C 497.359985 86.359985 499.51001 85.099976 504.529999 85.099976 C 508.829987 85.099976 512.320007 87.52002 527.190002 100.690002 C 548.599976 119.77002 553.890015 125.330017 552.98999 127.73999 C 552.179993 129.97998 548.869995 129.080017 539.280029 123.97998 Z"/>
        <path id="path21" fill="#f8740d" stroke="none" d="M 678.150024 68.169983 C 676.98999 65.839966 675.190002 28.309998 675.640015 15.320007 C 676 5.200012 676.090027 5.109985 678.859985 2.599976 C 681.280029 0.450012 682.530029 0 686.299988 0 C 689.080017 0 690.599976 0.359985 690.23999 0.900024 C 689.969971 1.349976 690.150024 1.799988 690.690002 1.799988 C 691.22998 1.799988 692.299988 3.22998 693.02002 4.940002 C 694.450012 8.52002 693.73999 14.969971 688.809998 42.119995 C 684.330017 66.669983 683.349976 69.890015 680.299988 69.890015 C 679.669983 69.890015 678.690002 69.080017 678.150024 68.190002 Z"/>
    </g>
    <g id="g3">
        <path id="path22" fill="#fbb10f" stroke="none" d="M 746.77002 363.529999 C 744.710022 361.470001 742.380005 356.98999 739.23999 348.929993 C 731.710022 329.76001 731.179993 325.640015 736.099976 326.269989 C 738.070007 326.450012 740.669983 329.140015 748.190002 338.179993 C 762.169983 355.109985 763.419983 358.25 758.039978 363.980011 C 754.72998 367.470001 750.51001 367.290009 746.75 363.529999 Z"/>
        <path id="path23" fill="#fbb10f" stroke="none" d="M 542.429993 350.089996 C 541.090027 348.839996 539.919983 346.690002 539.650024 344.799988 C 539.109985 341.929993 539.469971 341.040009 542.52002 337.720001 C 547.539978 332.170013 564.02002 318.190002 567.51001 316.48999 C 570.02002 315.329987 570.820007 315.23999 571.98999 316.220001 C 573.960022 317.829987 573.330017 319.359985 565.359985 332.790009 C 556.849976 347.299988 552.549988 352.049988 547.97998 352.049988 C 545.919983 352.049988 543.950012 351.329987 542.429993 350.079987 Z"/>
        <path id="path24" fill="#fbb10f" stroke="none" d="M 822.380005 217.779999 C 810.820007 215.359985 799.97998 213.119995 798.369995 212.76001 C 795.059998 211.950012 793.440002 209.799988 794.609985 207.73999 C 795.330017 206.660004 800.429993 206.399994 825.340027 206.220001 L 855.349976 205.950012 L 857.22998 208.369995 C 859.650024 211.51001 859.650024 214.910004 857.049988 218.669983 C 855.080017 221.539978 854.719971 221.720001 849.26001 221.890015 C 845.22998 221.97998 836.98999 220.72998 822.380005 217.77002 Z"/>
        <path id="path25" fill="#fbb10f" stroke="none" d="M 475.23999 187.320007 C 461.350006 186.600006 458.670013 185.169983 458.670013 177.910004 C 458.670013 173.789978 461.720001 170.299988 465.839996 169.669983 C 468.980011 169.130005 507.230011 177.109985 519.140015 180.779999 C 523.799988 182.119995 524.52002 182.660004 524.52002 184.539978 C 524.52002 186.059998 523.890015 186.869995 522.280029 187.320007 C 519.679993 188.039978 491.019989 188.039978 475.25 187.320007 Z"/>
        <path id="path26" fill="#fbb10f" stroke="none" d="M 742.559998 108.75 C 741.570007 107.5 742.02002 105.969971 745.960022 98.179993 C 751.869995 86.619995 768.97998 58.48999 772.119995 55.359985 C 773.549988 53.840027 775.880005 52.669983 778.119995 52.309998 C 781.169983 51.859985 782.150024 52.130005 784.47998 54.099976 C 789.679993 58.48999 789.140015 62.52002 782.23999 70.76001 C 769.609985 85.809998 746.5 110.179993 744.789978 110.179993 C 744.25 110.179993 743.179993 109.549988 742.549988 108.75 Z"/>
        <path id="path27" fill="#fbb10f" stroke="none" d="M 601.01001 85.820007 C 596.97998 80.710022 583.539978 60.469971 574.940002 46.580017 C 571.179993 40.400024 569.73999 37.26001 569.73999 34.929993 C 569.830017 30.090027 573.950012 25.969971 578.969971 25.969971 C 582.640015 25.969971 585.960022 29.460022 589.450012 37.080017 C 595.539978 50.429993 608.440002 83.390015 608.890015 86.97998 C 609.340027 90.289978 609.25 90.469971 607.099976 90.469971 C 605.309998 90.469971 603.789978 89.309998 601.01001 85.809998 Z"/>
    </g>
</svg>
